<svg id="highlight_continents" data-name="highlight continents" xmlns="http://www.w3.org/2000/svg" width="402" height="210" viewBox="0 0 402 210">
  <defs>
    <style>
      .cls-1 {
        fill: #fc8d59;
      }
    </style>
  </defs>
  <title>continent-na</title>
  <g id="north_america" data-name="north america">
    <path id="path2407" class="cls-1" d="M164.789,5.606c-1.256.068-3.325.17-4.58.221a26.178,26.178,0,0,0-2.8.22,4.476,4.476,0,0,1-.933.068l-.424-.051.424.356c.339.272.373.34.135.357a.546.546,0,0,1-.407-.187.386.386,0,0,0-.424-.1.6.6,0,0,1-.56-.153c-.288-.271-.508-.322-.356-.067.068.1-.152.169-.509.169-.509,0-.61.051-.526.272s.034.254-.271.152c-.95-.271-1.561-.271-1.781.017-.2.289-.221.289-.221-.017,0-.288-.135-.3-1.916-.2-1.052.068-2.409.152-3,.2-.611.051-1,.051-.882-.017.407-.2.187-.407-.441-.407a1.48,1.48,0,0,1-.848-.2c-.136-.136-1.866-.2-6.005-.221-5.92-.034-7.837.068-9.041.475a2.408,2.408,0,0,1-1.391.085,3.79,3.79,0,0,0-1.629.034,18.54,18.54,0,0,1-2.256.254c-1.951.1-3.121.272-3.121.441,0,.085.153.153.339.153s.34.1.34.238c0,.118.254.305.559.407.374.118.441.169.2.186a1.176,1.176,0,0,0-.577.221c-.169.186-.2.169-.153-.017.034-.136-.118-.255-.356-.289a1.55,1.55,0,0,1-.729-.407c-.238-.254-.543-.339-1.154-.339-.458,0-.882.068-.933.17a1.116,1.116,0,0,1-.695.169c-.322,0-.577.068-.577.17,0,.085-.169.17-.373.187a4.143,4.143,0,0,0-1.153.3c-.594.254-.747.39-.747.712-.017.323.1.424.492.475.373.034.424.085.221.17-.272.1-.272.136.034.526.3.407.373.424,2.578.441,2.29.017,3.46.237,2.782.509-.221.085-.356.051-.407-.068-.068-.2-1.323-.289-1.781-.1-.153.051-.221.221-.153.441.068.3.034.339-.271.255a4.094,4.094,0,0,0-1.307.135,3.332,3.332,0,0,1-1,.136c-.136-.136-.781.136-.781.3,0,.1.085.119.2.051.119-.085.136-.051.068.085-.1.153-.2.136-.441-.068-.238-.22-.492-.254-1.069-.169-.492.067-.8.05-.865-.068a.72.72,0,0,0-.526-.187.672.672,0,0,1-.492-.153,3.149,3.149,0,0,0-1.8.153.908.908,0,0,1-.339.221c-.2.067-.2.1.034.1.288.017.61.781.424.967a5.094,5.094,0,0,1-1.239.153l-1.17.085.492-.441c.441-.407.441-.475.2-.73-.22-.22-.339-.22-.61-.051-.407.255-.56.255-.424.034.152-.254-1.018-.2-2.053.1-.577.17-.916.356-.916.509,0,.136-.085.2-.169.153a.187.187,0,0,1-.085-.255c.135-.22-.713-.678-1.035-.56-.407.153-.967.73-.712.73.1,0,.135.051.084.119-.22.2.492.542,1.171.559.577,0,.712.051.678.289-.017.271.136.3,1.239.254.933-.034,1.306-.119,1.458-.322a.383.383,0,0,1,.526-.136q.332.127.1.2c-.17.068-.136.152.085.322.186.136.22.221.1.238-.306,0-.272.339.034.339.135,0,.254-.068.254-.153,0-.068.373-.1.831-.051.747.068.9.017,1.306-.39.374-.373.407-.492.221-.628-.187-.118-.187-.186-.017-.254a.37.37,0,0,0,.2-.322c0-.357,1.459-.323,1.595.034a.561.561,0,0,1,.068.305c-.034.017-.255.119-.492.22-.407.17-.8.866-.526.916a33.862,33.862,0,0,0,3.986.255c2.172.085,3.071.051,3.24-.085.187-.153.272-.153.357,0a6.492,6.492,0,0,0,2.968-.186c.543-.153,1.018-.543,1.018-.832,0-.526-2.341-.644-4.648-.254a6.155,6.155,0,0,1-1.493.136,3.2,3.2,0,0,0-.916-.136c-.763-.051-1.509-.441-.814-.441a.688.688,0,0,0,.475-.136,11.275,11.275,0,0,1,2.273-.136c1.187-.017,2.612-.033,3.172-.05s1.171-.034,1.357-.017c.339.017.339.017,0,.186-.237.1-.034.136.679.068.746-.051.916-.034.644.085-.509.2-.492.339.051.339.289,0,.475-.1.526-.339a.464.464,0,0,1,.475-.339c.628,0,1.442-.357,1.442-.628,0-.187-.119-.238-.441-.153-.289.085-.39.051-.323-.068a.658.658,0,0,1,.475-.169,2.261,2.261,0,0,0,.883-.272,4.2,4.2,0,0,1,1.357-.339c1.187-.1,1.56-.237,1.255-.424-.153-.1-.051-.119.288-.051.322.068.577.017.645-.085a.557.557,0,0,1,.424-.186,1.226,1.226,0,0,0,.678-.407c.391-.407.832-.526,2.714-.713a5.257,5.257,0,0,0,1.476-.339,3.5,3.5,0,0,1,.781-.305c3.545-.645,4.512-.865,4.325-.984-.1-.068.085-.085.424-.017a1.359,1.359,0,0,0,.848-.085,9.569,9.569,0,0,1,2.8-.475c.034.034-.051.187-.2.339a1.858,1.858,0,0,1-1.239.272c-1.289.017-4.817.712-4.919.984-.034.135.17.2.713.2.424,0,.78.068.78.17,0,.322-.8.56-2.375.7a27.648,27.648,0,0,0-5.649.882l-.458.238.441.186a1.979,1.979,0,0,0,.747.2.607.607,0,0,1,.407.136c.034.067-.339.118-.848.1a2.064,2.064,0,0,0-1.018.119c-.051.085.1.153.339.153.289,0,.407.068.339.22-.152.39,1.188,1.171,2.172,1.273.593.05.831.017.746-.1-.068-.119.051-.136.424-.034a1.3,1.3,0,0,0,.679.068,10.43,10.43,0,0,1,4.122.118c1.34.323,1.764.492,1.238.492-.39,0-.187.458.271.577.357.1.357.119.068.339-.305.238-.305.238,0,.323.238.068.221.084-.085.1-.22,0-.356.085-.288.187a.359.359,0,0,0,.39.068c.187-.068.153.034-.135.288l-.425.373.391-.1c.39-.085.39-.085.1.237-.271.289-.271.373-.067.492.2.136.169.17-.119.17-.424,0-.526.254-.17.407.136.051.051.22-.271.475-.407.356-.441.441-.238.729.187.238.373.289.848.2.34-.051.662-.034.713.068.051.084-.017.1-.153.05-.152-.05-.271-.016-.271.085s.152.187.356.187c.237,0,.322-.1.288-.3-.017-.153.034-.289.119-.289a.149.149,0,0,1,.119.2c-.034.135.119.22.339.22.288,0,.407.1.424.34.034.356-.186.458-.373.169a3.853,3.853,0,0,0-2.188-.017c-.068.085,0,.2.1.255.118.051,0,.067-.255.017-.271-.051-.441-.034-.39.05s-.051.357-.238.577l-.322.424.543.306c.492.254.645.254,1.459.051,1.052-.255,1.238-.492.594-.8-.255-.1-.408-.254-.34-.3.051-.068.2-.017.306.085a.915.915,0,0,0,.576.2c.475,0,.492.543.034,1.222-.288.424-.39.441-1.119.356-.764-.085-.848-.051-1.256.441a2.153,2.153,0,0,1-.559.526,2.539,2.539,0,0,0-.933,1.119c0,.136.135.238.3.255.221,0,.2.034-.085.152-.424.17-.814.781-.577.916.085.051.119.272.051.475-.067.289-.034.34.221.255.22-.085.271-.051.186.136-.05.135-.033.254.051.254s.051.288-.067.628c-.187.559-.187.661.033.8.187.1.2.17.068.254-.254.153.051,1.035.34,1.035.118,0,.152.187.1.509-.068.271-.051.509.034.509.068,0,.221.305.34.661a1.39,1.39,0,0,0,.441.764.5.5,0,0,1,.254.441c0,.373.2.424.645.186.407-.2,1.9.255,1.9.594a.412.412,0,0,0,.306.339,6.111,6.111,0,0,1,.661.272,1.239,1.239,0,0,0,1.493-.509c.085-.2.255-.373.373-.373.1,0,.238-.153.306-.34a3.24,3.24,0,0,1,.661-.882,2.984,2.984,0,0,0,.679-1.034.887.887,0,0,1,.543-.628,3.509,3.509,0,0,0,.882-.594,2.681,2.681,0,0,1,.763-.526.416.416,0,0,0,.288-.322,1.158,1.158,0,0,1,.357-.577.673.673,0,0,0,.271-.678c-.051-.187-.034-.322.034-.3.22.067,1.2-.442,1.1-.577-.05-.085.272-.153.7-.153.577,0,.746-.051.661-.22-.1-.153-.067-.153.119-.017.356.271,1.171.441,1.171.237,0-.085.118-.17.254-.17s.255-.084.255-.186c0-.085.084-.119.169-.068a.366.366,0,0,0,.39-.034,7.069,7.069,0,0,1,1.137-.458,5.525,5.525,0,0,0,1.781-1.052,4.805,4.805,0,0,1,1.306-.848,1.09,1.09,0,0,0,.645-.373c.135-.237.186-.254.322-.051.1.17.356.2.9.119a30.131,30.131,0,0,0,5.7-1.289,4.767,4.767,0,0,1,.831-.34,9.451,9.451,0,0,0,1.289-.491l1.153-.475-.983-.119c-1.374-.153-2.6-.39-2.121-.424.306-.017.39-.1.34-.407-.034-.306.033-.374.441-.374.356,0,.508.085.542.306a.717.717,0,0,0,.153.424,5.034,5.034,0,0,0,2.137.186A1.426,1.426,0,0,0,172,18.8c.034-.7,0-.746-.577-1.034-.509-.238-.543-.272-.136-.187.543.1,1.12-.254.764-.475-.17-.119-.136-.153.085-.153s.288-.084.2-.322c-.1-.339.272-.526,1.12-.526.695,0,1.119-.577.542-.729-.22-.051-.186-.085.119-.119a3.623,3.623,0,0,1,.577-.017,3.946,3.946,0,0,0,1.73-.814.429.429,0,0,1,.458-.136c.153.051.322.034.373-.051.068-.1-.017-.169-.169-.169s-.221-.085-.17-.17c.068-.1-.1-.17-.39-.17-.492,0-.814.374-.611.7.1.169-.661.22-.831.034-.068-.051.034-.221.221-.339a.99.99,0,0,0-.136-1.544c-.492-.322-.255-.492.543-.407.441.051.56.135.492.339-.068.153-.034.221.068.153.118-.085.152,0,.1.22-.135.526.119.39.306-.169.1-.289.305-.509.441-.509s.22-.119.186-.306c-.034-.2-.237-.288-.695-.322a1.617,1.617,0,0,1-.764-.136c-.067-.084.051-.1.238-.051a.857.857,0,0,0,.594-.05c.169-.1.1-.17-.221-.306a1.386,1.386,0,0,1-.56-.356c-.084-.136-.186-.136-.356.017-.407.339-.492,0-.085-.339a1.1,1.1,0,0,1,1.086-.238c.577.068.661.051.577-.186-.068-.187-.017-.272.186-.289.238,0,.238-.034-.051-.152-.424-.17-.186-.272.916-.391a1.809,1.809,0,0,0,.849-.254,1.426,1.426,0,0,1,.729-.288c.356-.068.594-.187.543-.272s.186-.152.509-.152A1.255,1.255,0,0,0,181.48,8a4.084,4.084,0,0,1,1.289-.356c1.714-.306,1.307-.543-1.085-.662a5.365,5.365,0,0,0-2.2.119c-.289.237-1.018.085-.866-.17.068-.085-.017-.152-.152-.152-.153,0-.255.084-.221.2.017.1-.1.238-.271.272s-.272-.034-.255-.153c.034-.119-.1-.255-.288-.289s-.288-.016-.2.068c.068.068-.237.272-.678.441-.967.374-1.069.374-.645.085.17-.136.255-.322.187-.441-.068-.1,0-.22.136-.271.152-.051.39-.119.542-.17.458-.153.221-.22-1.017-.339a10.414,10.414,0,0,1-1.8-.339A50.851,50.851,0,0,0,164.789,5.606Zm-6.667,1.255c0,.289,0,.289-.39.136-.271-.1-.271-.119.034-.237.17-.068.322-.136.339-.136A1.337,1.337,0,0,1,158.122,6.861Zm16.335.085a1.332,1.332,0,0,1-.593.153c-.272-.017-.272-.034.085-.153C174.542,6.76,174.763,6.76,174.457,6.946Zm-51.279.272a.348.348,0,0,1-.322.017c-.136-.051-.085-.1.1-.1C123.144,7.116,123.246,7.167,123.178,7.218Zm.848,1.221a1.065,1.065,0,0,0-.848.39c-.271.441-.424.407-.339-.085.085-.458.594-.61,1.408-.441C124.586,8.371,124.552,8.4,124.026,8.439Zm2.681-.136c.051.085-.034.17-.187.17-.271,0-.271.017.034.254s.288.238-.136.068c-.373-.169-.424-.254-.288-.441C126.367,8.083,126.571,8.066,126.707,8.3Zm-2.8,1.137c0,.152-.051.2-.119.118a2.461,2.461,0,0,0-.305-.271c-.1-.068-.034-.136.135-.136A.287.287,0,0,1,123.908,9.44Zm-.34.288c0,.051-.067.136-.169.187-.085.051-.17.017-.17-.068a.186.186,0,0,1,.17-.187C123.5,9.66,123.568,9.694,123.568,9.728Zm-3.222.7a.7.7,0,0,1-.391.254c-.1,0-.034-.119.153-.254C120.532,10.1,120.617,10.1,120.346,10.424Zm16.5,1.051a.9.9,0,0,1-.425,0c-.118-.051-.033-.085.2-.085S136.952,11.424,136.851,11.475Zm-2.545.17a.893.893,0,0,1-.424,0c-.119-.051-.034-.085.2-.085S134.408,11.594,134.306,11.645Zm-27.955,1.086c.187.288-.017.356-.254.067-.136-.152-.136-.254-.034-.254A.369.369,0,0,1,106.351,12.731Zm-2.68.254a.343.343,0,0,1-.322.017c-.136-.051-.085-.1.1-.1C103.637,12.883,103.739,12.934,103.671,12.985Zm67.139,2.952c.051.084.017.169-.067.169a.186.186,0,0,1-.187-.169c0-.1.034-.17.068-.17C170.675,15.767,170.76,15.835,170.81,15.937Zm-.373.508c-.492.2-.509.628-.034.764.458.152.34.271-.152.135a.445.445,0,0,1-.374-.407.622.622,0,0,0-.288-.475c-.237-.135-.136-.169.458-.169C170.675,16.293,170.743,16.327,170.437,16.445Zm1.527-.05a1.318,1.318,0,0,1-.509,0c-.17-.051-.068-.085.2-.085C171.947,16.31,172.066,16.344,171.964,16.4Zm.068.322a.344.344,0,0,1-.323.017c-.135-.051-.084-.1.1-.1C172,16.615,172.1,16.666,172.032,16.717Zm-31.925,10.72c-.05.051-.186,0-.305-.118-.153-.17-.136-.187.1-.085C140.073,27.285,140.158,27.387,140.107,27.437Z"/>
    <path id="path2409" class="cls-1" d="M107.284,9.474c-.424.051-.763.186-.763.3a.781.781,0,0,1-.34.458c-.186.136-.3.288-.254.339a6.806,6.806,0,0,0,1.34.17,3.867,3.867,0,0,1,1.425.254,1.5,1.5,0,0,0,.814.187c.543,0,.679-.085.882-.509.255-.492.255-.509-.271-.746a5.88,5.88,0,0,0-.967-.323c-.238-.051-.577-.118-.763-.169A4.193,4.193,0,0,0,107.284,9.474Z"/>
    <path id="path2411" class="cls-1" d="M100.21,10.237c-1.323.2-1.8.441-.882.441a1.846,1.846,0,0,1,.764.136c.118.068-.323.118-.967.118-.865,0-1.222.068-1.34.255-.238.39.271.56,1.391.441,1.034-.1,1.883-.492,1.459-.662-.119-.05.033-.05.356,0,.407.068.543.051.458-.084s.017-.2.271-.2a1.441,1.441,0,0,0,.645-.17c.22-.152.22-.186,0-.339C102.059,9.983,101.822,9.983,100.21,10.237Z"/>
    <path id="path2413" class="cls-1" d="M93.035,11.509a16.6,16.6,0,0,0-3.834.882,4.068,4.068,0,0,1-.949.153,3.7,3.7,0,0,0-.967.187c-.645.237-.73.644-.085.525a.553.553,0,0,1,.577.153c.118.187.22.17.491-.085q.357-.33.357-.1c0,.153.152.187.543.1.508-.1.525-.085.22.136-.322.254-.322.254.119.271a2.625,2.625,0,0,0,.882-.169c.237-.085.441-.119.441-.085,0,.051-.2.17-.458.271-.407.153-.441.2-.187.34a3.444,3.444,0,0,0,1.018.22c.441.034.713.119.679.255-.1.475.848.542,2.917.2,1.137-.186,2.748-.373,3.579-.424A4.98,4.98,0,0,0,100.8,13.8c1.052-.543.95-.831-.237-.763l-.8.034.272-.407c.254-.407.22-.628-.085-.628-.085,0-.1.085-.034.2s.051.135-.085.067a1.519,1.519,0,0,0-.831.068c-1.221.374-1.153.34-.882.509.2.136.17.17-.119.17-.458,0-.526.288-.085.39.153.051-.152.085-.7.1-.543,0-.95-.051-.9-.136.2-.322-.56-.7-1.612-.814-1.068-.1-1.085-.119-.576-.322.288-.119.441-.238.339-.255-.085-.017.051-.068.322-.136.289-.05.509-.186.509-.271C95.325,11.39,94.664,11.374,93.035,11.509Zm-.356,1.561.78.136-.8-.051a2.388,2.388,0,0,0-1.018.084c-.17.119-.136.153.119.17.186,0,.254.051.153.085a1.012,1.012,0,0,1-.594-.085c-.289-.119-.322-.17-.1-.17.153-.017.288-.1.288-.2,0-.119-.2-.136-.542-.068-.56.1-.56.1-.136-.136a.756.756,0,0,1,.746-.068A5.867,5.867,0,0,0,92.679,13.07Zm.611-.356a.6.6,0,0,1-.442.169c-.186,0-.288-.085-.237-.169a.534.534,0,0,1,.441-.17C93.239,12.544,93.34,12.612,93.29,12.714Zm-.17,1.526c.068.1-.119.17-.458.153-.526-.017-.543-.017-.136-.153a3.214,3.214,0,0,0,.458-.152C93,14.071,93.069,14.138,93.12,14.24Z"/>
    <path id="path2415" class="cls-1" d="M82.806,14.868a.905.905,0,0,0-.661.492c-.1.22-.289.407-.39.407a3.966,3.966,0,0,0-1,.424,4.233,4.233,0,0,1-.984.424.851.851,0,0,0-.458.238,5.658,5.658,0,0,1-1.069.525c-.441.17-.763.357-.712.441a.264.264,0,0,0,.288.068c.323-.118.848.373.73.679-.153.39.254.475,1.1.2a6.462,6.462,0,0,1,1.408-.271,2.427,2.427,0,0,0,1.1-.339,6.03,6.03,0,0,1,2.646-.865c.051.067-.17.186-.475.237a2.737,2.737,0,0,0-.865.356c-.322.255-.322.255-.017.475.288.221.271.255-.221.424-.627.221-.644.255-.271.611.221.237.526.254,1.815.17a13.655,13.655,0,0,1,2.392-.1c.271.017.458.085.39.136a12.976,12.976,0,0,1-2.019.152c-2.544.051-3.358.2-3.358.611,0,.56.475.831,1.493.831.729,0,.9.051.746.2a.746.746,0,0,0-.2.475c0,.254.2.271,1.493.237a17.5,17.5,0,0,0,2.324-.237,14.981,14.981,0,0,1,1.611-.255l.764-.068-.679.136c-1.391.288-1.713.509-1.611,1.187.017.17-.119.2-.628.1-.695-.119-.848-.2-.695-.356.068-.051.254-.017.441.085.407.22.61.051.288-.255-.186-.186-.339-.2-.712-.051a7.4,7.4,0,0,1-3.681.255c-.238-.119-.289-.1-.2.034.085.152-.1.2-.661.169-.9-.033-.713-.237.39-.407.882-.135,1.051-.373.56-.763a1.937,1.937,0,0,0-1.341-.288,6.018,6.018,0,0,1-1.781-.255,6.05,6.05,0,0,0-1.034-.288.7.7,0,0,1-.441-.255,2.731,2.731,0,0,0-2.341.017,1.491,1.491,0,0,1-.882.153c-.357-.119-.475-.424-.17-.424a.161.161,0,0,1,.17.17.185.185,0,0,0,.186.169.093.093,0,0,0,.085-.152c-.051-.085.017-.187.153-.255.135-.051.254-.17.254-.271,0-.2-.814-.051-1.187.237a4.377,4.377,0,0,1-1.29.611,2,2,0,0,1,.034-.679c.085-.543.051-.7-.186-.78a.353.353,0,0,0-.424.085,2.283,2.283,0,0,1-1.374.7c-.221,0-.289-.085-.2-.288.085-.221.051-.255-.22-.153a2.265,2.265,0,0,1-.662.187,22.033,22.033,0,0,0-3.443.763c-.221.136-.17.153.22.085.441-.085.458-.085.187.085-.238.169-.407.152-.764-.017-.475-.238-2.052-.322-2.052-.119,0,.085-.153.136-.322.136a1.028,1.028,0,0,0-.611.288c-.492.492-2.392.2-2.188-.339.051-.153-.17-.221-.815-.255-1.17-.05-1.832-.186-1.832-.407,0-.084-.508-.152-1.221-.135a17.243,17.243,0,0,1-2.341-.17c-.61-.1-1.747-.237-2.544-.3-1.069-.085-1.425-.17-1.391-.34.034-.186-.17-.22-.9-.169-.662.034-.95-.017-1.018-.187a.25.25,0,0,0-.339-.119.328.328,0,0,1-.39-.169c-.119-.2-.272-.187-1.137.119a9.817,9.817,0,0,1-2.12.407,12.265,12.265,0,0,0-2.121.322,7.374,7.374,0,0,1-1.543.271,10.5,10.5,0,0,0-3.308,1.086,8.82,8.82,0,0,1-2.375.628,8.215,8.215,0,0,0-1.9.424,2.253,2.253,0,0,1-.814.237c-.424,0-.407.289.017.424.458.153.78.73.526.984-.289.289-.221.458.152.458.238,0,.306.085.221.289a1.48,1.48,0,0,1-1.052.882c-.475-.034-1.306-.289-1.017-.306a.8.8,0,0,0,.491-.271c.272-.339.085-.339-1.441.017-1.459.322-2.273.509-3.478.746-1.035.221-1.391.441-.967.611.255.1.255.153-.051.577-.458.627-.271.729,1.239.712a3.852,3.852,0,0,1,1.391.136c.135.119.407.085.814-.085.712-.288,1.2-.339.8-.085-.2.136-.2.17-.017.17.356,0-.594.831-1.085.95a3.393,3.393,0,0,1-1.018,0c-.339-.068-.594-.051-.594.051,0,.271-1.052.542-1.662.424-.577-.119-1.018.034-1.934.644a1.627,1.627,0,0,1-.713.306,4.824,4.824,0,0,0-1.628.7,1.936,1.936,0,0,1-.56.221c-.475.118-.9.814-.7,1.136.051.085-.1.221-.323.3-.356.136-.424.272-.407.764.017.543.068.61.441.61a5.363,5.363,0,0,0,1.069-.152c.577-.136.628-.119.475.152a1.181,1.181,0,0,1-.492.425,1.366,1.366,0,0,0-.594.508.882.882,0,0,1-.559.424c-.2,0-.238.051-.1.187s.288.136.56-.017c.254-.136.339-.136.271-.017-.17.255,0,.238.577-.068.593-.3,1.425-.169,1.289.187-.119.322.407.3.645-.034.152-.187.3-.221.61-.1.407.153.407.153-.339.713a10.157,10.157,0,0,1-1.527.882c-.424.186-.916.39-1.1.475s-.916.339-1.612.559c-1.543.509-2.205.8-2.205,1,0,.085-.153.068-.322-.017-.323-.186-.865-.034-2.816.713a6.062,6.062,0,0,1-1.985.56c-.814.084-2.086.729-1.866.949.1.1.289.1.509-.017a2.084,2.084,0,0,1,.831-.186,2.524,2.524,0,0,0,.984-.272,1.52,1.52,0,0,1,.848-.169.939.939,0,0,0,.662-.153.61.61,0,0,1,.458-.169c.068.05.17.017.237-.085.187-.323.95-.187,1.052.169.1.391.238.424.526.136.136-.136.254-.136.441.017.2.17.288.136.441-.136.153-.288.136-.356-.085-.356a.264.264,0,0,1-.254-.271c0-.2.1-.255.424-.17a1.111,1.111,0,0,0,.848-.17c.22-.135.492-.22.577-.152a2.952,2.952,0,0,0,1.679-.713c.136-.118.3-.186.39-.135.085.067.153.017.153-.085s.2-.136.526-.085c.305.051.475.034.424-.068-.051-.085.2-.2.577-.271a2.733,2.733,0,0,0,1.051-.407,6.518,6.518,0,0,1,2-.781c.051-.017.3-.118.56-.22a2.431,2.431,0,0,1,.763-.2,2.766,2.766,0,0,0,.967-.424,3.068,3.068,0,0,1,1.035-.424c.509,0,.9-.475.559-.7-.186-.119-.169-.153.1-.17a2.679,2.679,0,0,1,.526,0c.119.017.238-.085.3-.237a.588.588,0,0,1,.526-.255c.238,0,.424-.085.424-.17,0-.1.136-.169.306-.169a1.4,1.4,0,0,0,.627-.221c.475-.322.933-.475.933-.3,0,.068-.2.22-.441.322-.237.119-.373.289-.322.373.068.1-.119.255-.407.357s-.526.254-.526.339c0,.271.9.153,2.086-.255a4.256,4.256,0,0,1,1.137-.322c0,.051.1.017.22-.085a2.442,2.442,0,0,1,1.68-.118,1.825,1.825,0,0,0,1.068-.255c.7-.339,1-.678.594-.678a.17.17,0,0,0-.17.169.167.167,0,0,1-.152.17c-.085,0-.136-.136-.1-.3.017-.187.17-.272.407-.255.187.034.356-.034.356-.119,0-.1.187-.169.424-.169.492,0,.509.373.017.509a.61.61,0,0,0-.39.288c-.051.153.085.153.509.017a1.642,1.642,0,0,1,1.069,0c.475.17.475.187.119.288-.221.068-.391.2-.391.289,0,.1.119.118.306.034a8.278,8.278,0,0,1,1.492-.2,3.136,3.136,0,0,1,1.765.221,1.7,1.7,0,0,0,1,.186c.289-.085.374-.068.2.051-.187.119-.153.221.2.526a1.818,1.818,0,0,1,.525.78c.068.221.187.407.272.407.271,0-.034,1.256-.407,1.68-.238.271-.272.373-.1.322.187-.068.254.017.254.288,0,.221-.05.357-.118.306-.085-.034-.136.051-.136.186,0,.39.271.34.577-.1.152-.2.3-.323.356-.272s-.136.288-.424.526c-.611.526-.628.628-.119.645h.373l-.373.152c-.322.136-.373.272-.322.713.051.475.119.559.56.593a.906.906,0,0,0,.814-.288c.288-.322.322-.322.526-.034.2.271.22.255.407-.136l.169-.424-.084.458c-.051.255-.017.509.084.56a.431.431,0,0,1,.17.3c0,.136-.051.119-.153-.034-.118-.186-.186-.169-.322.085-.1.17-.237.272-.288.2-.17-.17-.645.322-.509.526a.206.206,0,0,1-.085.271c-.254.17-.2.373.2.763.2.187.271.34.152.34s-.186.152-.152.373.152.373.288.339c.153-.034.119.136-.119.543-.237.39-.288.645-.169.712s.1.153-.034.238c-.17.1-.085.254.271.611.356.339.407.424.153.322a1.6,1.6,0,0,0-1.222-.017c-.237.068-.39.051-.39-.051,0-.085.17-.2.39-.237.323-.051.323-.068-.051-.051-.356.017-.424.1-.39.475.017.271-.051.475-.169.475s-.017.1.22.22.441.3.441.424c.017.119.034.272.051.356,0,.085.17.221.356.272.187.068.306.186.255.271-.068.085.017.2.152.255.153.051.221.169.17.254s.017.153.136.153a1.272,1.272,0,0,1,.543.254c.288.221.288.238-.153.2-.509-.034-.577.051-1,1.374A12.739,12.739,0,0,1,45.488,53.8a7.941,7.941,0,0,0-.628.814,15.087,15.087,0,0,1-1.085,1.323,5.52,5.52,0,0,0-1.544,2.494,5.6,5.6,0,0,1-.916,1.662c-.577.679-.645.865-.492,1.137.153.237.119.441-.1.933-.254.509-.271.712-.119,1.051a1.16,1.16,0,0,1,.1.73c-.051.169-.017.356.068.407a1.016,1.016,0,0,1,.068.712c-.068.424-.034.662.136.764.2.135.2.169,0,.3-.221.136-.221.305-.017,1.154a8.324,8.324,0,0,1,.237,1.577c.017.56.051.594.662.645.407.034.627.135.627.305,0,.2.323.322.747.254.085-.016.1.085.051.238-.068.153-.017.254.118.254.424,0,.764.594.764,1.357a25.113,25.113,0,0,0,.186,2.8,7.769,7.769,0,0,1,.085.916c.051.662.153.967.407,1.137a3.66,3.66,0,0,1,.7.831c.356.56.356.628.1,1.018-.271.424-.424.492-.983.441-.17-.017-.306.017-.306.1,0,.288,1.391,1.747,1.561,1.645.2-.136,1.323,1.035,1.323,1.357a2.153,2.153,0,0,1-.254.713,2.389,2.389,0,0,0-.255.746.712.712,0,0,0,.645.678c.39,0,1.56,1.357,1.56,1.815,0,.272.068.391.221.323a3.42,3.42,0,0,1,.526-.2c.254-.1.288-.237.2-.729a8.711,8.711,0,0,1-.1-.916c0-.153-.084-.289-.186-.289-.085,0-.119.1-.068.2.068.119-.034.034-.221-.187-.322-.39-.339-.39-.424-.084-.05.237-.084.2-.1-.136a.814.814,0,0,1,.152-.56c.255-.153.2-.424-.068-.424-.254,0-.475-.984-.237-1.12a.376.376,0,0,0,.136-.254c0-.1-.068-.119-.17-.068s-.17-.085-.17-.305a4.418,4.418,0,0,0-.882-1.951c-.2-.1-.152-.967.068-1.187.1-.1.136-.255.068-.323s-.187-.017-.271.119c-.136.2-.17.17-.17-.119,0-.2-.068-.424-.17-.475a.4.4,0,0,1-.169-.305c0-.1.118-.034.271.153.255.3.255.3.153-.187-.136-.627-.238-.729-.407-.441-.1.153-.221.068-.475-.322-.306-.475-.306-.611-.119-1.544.237-1.187.288-1.255.7-1.085a.883.883,0,0,0,.442.1c.237-.051.848.645.763.865a3.887,3.887,0,0,0,.034,1.154,2.234,2.234,0,0,1-.1,1.374c-.2.424-.17.662.119.662.068,0,.085-.17.034-.391s.051-.135.22.221a4.553,4.553,0,0,0,.526.814.736.736,0,0,1,.221.373c0,.085.135.187.322.255.22.068.288.2.22.526-.051.339,0,.441.289.525a.468.468,0,0,1,.356.391.466.466,0,0,0,.373.39c.339.1.339.118.085.526a1.566,1.566,0,0,0-.288.627,1.571,1.571,0,0,0,.882.831c.084,0,.237.2.356.458a2.854,2.854,0,0,0,.644.9,5.1,5.1,0,0,1,.747,1.018,9.474,9.474,0,0,0,.678,1.12c.374.475.441.848.441,2.273,0,1.052-.034,1.187-.288,1.187-.356,0-.288.747.153,1.408a3.035,3.035,0,0,0,.967.9,1.873,1.873,0,0,1,.746.7,2.516,2.516,0,0,0,1.73.78,1.814,1.814,0,0,1,.814.543,7.13,7.13,0,0,0,2.731,1.442.908.908,0,0,1,.458.2,3.811,3.811,0,0,0,1.544.814,2.03,2.03,0,0,1,.713.238c.491.254,1,.17,1.984-.305a2.376,2.376,0,0,1,.814-.272,3.091,3.091,0,0,1,2.189,1.408c1.051,1.408,1.56,1.815,2.493,1.968a4.723,4.723,0,0,1,1.171.305,4.207,4.207,0,0,0,2.358.645c.627-.034.746,0,.542.152-.237.153-.186.289.374.9,1.543,1.765,1.848,2.341,1.509,2.9-.22.339.034.848.56,1.12.458.22.526.22.679-.034.152-.272.152-.272.169,0,0,.152.255.407.577.56.594.288.882.678.611.848-.2.118-.017.593.22.593a1.424,1.424,0,0,1,.577.374c.356.322.39.339.39.067,0-.2.085-.271.271-.2a2.169,2.169,0,0,0,.577.1.462.462,0,0,1,.339.746c-.237.237-.2.441.085.441.153,0,.2-.1.153-.254-.153-.408.373-.136.678.356.272.39.289.39.866.119.644-.306.712-.492.339-1-.339-.441-.323-.458.254-.713.289-.135.509-.339.509-.458a.432.432,0,0,1,.255-.322c.237-.085.373-1.12.152-1.12a11.42,11.42,0,0,0-1.187.594c-1.222.679-1.357.7-1.8.305-.221-.186-.306-.2-.306-.05,0,.169-.05.169-.237,0a.394.394,0,0,1-.17-.408c.051-.118-.118-.305-.356-.407s-.424-.3-.424-.458c0-.135-.085-.254-.17-.254-.1,0-.254-.2-.339-.475-.1-.254-.254-.628-.356-.814a.674.674,0,0,1,0-.713,1.95,1.95,0,0,0,.186-.78c0-.237.085-.441.17-.441.1,0,.17-.407.17-.9a3.286,3.286,0,0,1,.322-1.493,1.893,1.893,0,0,0,.254-.967.417.417,0,0,1,.1-.458c.119-.068.017-.254-.288-.526-.255-.22-.594-.525-.746-.661a4.6,4.6,0,0,0-2.647-.39A3.512,3.512,0,0,1,75.9,96.6a.417.417,0,0,0-.424.084c-.2.17-.3.17-.509,0a.462.462,0,0,0-.458-.067c-.118.067,0-.1.255-.391a2.54,2.54,0,0,0,.577-1.17,2.35,2.35,0,0,1,.271-.882c.085-.1.119-.2.068-.2s.085-.186.3-.424a1.314,1.314,0,0,0,.424-.661,2.407,2.407,0,0,1,.2-.73,2.836,2.836,0,0,0,.2-.763.685.685,0,0,1,.153-.407.684.684,0,0,0,.119-.407.778.778,0,0,1,.254-.509c.221-.187.238-.17.153.068-.153.39.153.339.407-.068.136-.221.136-.339.034-.339q-.178,0,0-.357a1.124,1.124,0,0,0,.1-.746c-.1-.373-.17-.39-1.154-.339a12.38,12.38,0,0,0-2.188.322c-.882.238-1.17.373-1.323.712a2.414,2.414,0,0,0-.187.594,5.466,5.466,0,0,1-.407,1.052,2.572,2.572,0,0,1-2.137,1.577,10.624,10.624,0,0,0-2.545.577c-.305.17-.424.136-.78-.22a1.956,1.956,0,0,0-.882-.509c-.458-.1-.729-.509-.967-1.561a1.921,1.921,0,0,0-.39-.814,1.955,1.955,0,0,1-.3-1.018,4.783,4.783,0,0,0-.187-1.136,1.591,1.591,0,0,1-.119-.764,12.948,12.948,0,0,1,1.425-4.325,3.049,3.049,0,0,0,.424-1.544c.1-1.543.475-2,2.7-3.325,2.477-1.492,3.359-1.815,3.783-1.391a2.31,2.31,0,0,0,1.052.187c.594.017.865.1.865.254a.272.272,0,0,0,.221.255c.712.085,1.238.051,1.34-.1.118-.186.678-.305.576-.136a.676.676,0,0,0,.051.425c.1.271.136.271.441.033.34-.254.34-.254-.051-.559-.373-.289-.373-.306-.05-.577a1.563,1.563,0,0,0,.39-.475c.1-.322,3.664-.373,4.173-.068a.821.821,0,0,1,.373.475c0,.424.56.475,1.051.1.577-.424.984-.39,1.256.136a3.686,3.686,0,0,0,.458.678c.356.39.356.763.034,1.374a1.924,1.924,0,0,0-.187.882,3.919,3.919,0,0,0,.458,1.849c.085,0,.153.119.153.255a.924.924,0,0,0,.339.542,1.172,1.172,0,0,1,.339.764c0,.356.068.441.272.356a.37.37,0,0,1,.424.136c.135.2.186.2.305-.017a1.718,1.718,0,0,0,.187-.424,1.424,1.424,0,0,1,.237-.509,3.9,3.9,0,0,0,.424-2.765,4.2,4.2,0,0,1-.068-1.222,3.622,3.622,0,0,0-.186-1.2,4.247,4.247,0,0,1,2.561-5.072,5.921,5.921,0,0,0,1.2-.984c.458-.475.831-.712,1.136-.712a.784.784,0,0,0,.543-.17A3.908,3.908,0,0,1,94.969,69.2c.509,0,.95-.475.627-.661-.152-.1,0-.255.475-.475.645-.322.679-.322.509-.034a.611.611,0,0,1-.458.339c-.152,0-.2.051-.084.085a.75.75,0,0,0,.542-.1c.306-.152.357-.339.357-1.323a3.492,3.492,0,0,0-.17-1.323c-.136-.136-.119-.339.017-.679a6.892,6.892,0,0,0,.254-.814c.1-.576.357-.644.323-.1a1.355,1.355,0,0,1-.221.713.853.853,0,0,0-.2.543c0,.322.05.288.407-.153.22-.271.373-.577.322-.661-.068-.085-.017-.1.085-.034.119.067.39-.085.644-.357a1.038,1.038,0,0,0,.357-1.017c-.051-.306-.017-.594.067-.645.085-.068.153.017.153.153,0,.39.1.339.916-.323a3.538,3.538,0,0,0,.933-1.17c.221-.526.339-.594,1.188-.763,1.187-.255,2.137-.662,1.628-.7-.187-.017.017-.136.475-.254a3.027,3.027,0,0,1,1.119-.136.388.388,0,0,0,.425-.1.563.563,0,0,1,.441-.186.463.463,0,0,0,.339-.747c-.119-.119-.17-.085-.17.119,0,.407-.322.356-.492-.1-.118-.254-.085-.424.085-.56a.638.638,0,0,0,.238-.441c0-.509,1.1-1.255,2.544-1.747a16.092,16.092,0,0,0,1.815-.712,1.852,1.852,0,0,1,.882-.255c.492-.017.763-.288.322-.322-.3-.017.391-.271.984-.373a6.039,6.039,0,0,0,.95-.272c.272-.1.509-.118.56-.017.051.085-.424.408-1.035.713-.984.475-1.153.627-1.187,1.052a.923.923,0,0,0,.186.712c.272.271.764.322.764.068,0-.1.152-.17.339-.17s.339-.068.339-.152c0-.238,1.323-1.069,1.51-.95a.451.451,0,0,0,.39-.017,16.674,16.674,0,0,1,3-1c.034.051.169-.068.305-.255a.782.782,0,0,1,.509-.339c.373,0,1.238-.543,1.238-.8a.245.245,0,0,0-.254-.221c-.306,0-.323-.067-.051-.509.169-.254.169-.373,0-.542-.153-.153-.424.034-1.222.848-.559.577-1.017.984-1.017.882s-.153-.1-.373-.017c-.458.153-1.883-.1-1.748-.322.119-.187.933-.153.933.034,0,.067.153.135.34.135s.339-.068.339-.169c0-.085.2-.272.475-.407.458-.255.441-.255-.475-.272-1.086,0-1.408-.153-1.255-.594.084-.22.05-.271-.119-.22a.278.278,0,0,0-.2.271c.034.1-.068.153-.2.1-.323-.136-.323.17,0,.509.339.339.322.424-.085.322-.356-.1-.543-.576-.458-1.136a2.419,2.419,0,0,1,.644-.9l.577-.577-.458.1c-.695.169-.577-.051.2-.356,1.357-.543.984-1.527-.56-1.476a12.542,12.542,0,0,0-4.292,1.323c-.95.56-1.051.543-.373-.068a5.746,5.746,0,0,1,2.392-1.2,1.5,1.5,0,0,0,.8-.492,2.636,2.636,0,0,1,.916-.7,25.388,25.388,0,0,1,4.037-.152A18.236,18.236,0,0,0,122.7,46.5a1.072,1.072,0,0,1,.492-.272,3.94,3.94,0,0,0,.848-.508,3.668,3.668,0,0,1,2.138-.781h.526l-.764.747a9.984,9.984,0,0,0-2.035,2.29c0,.1-.119.186-.255.186a.409.409,0,0,0-.356.255c-.068.135-.17.2-.254.152-.153-.084-.662.306-.662.526,0,.051.17.068.39,0,.2-.051.051.1-.356.356-1.187.73-.933.916,1.408,1,4.325.187,3.986.136,3.715.441-.289.306-.306.662-.051.662.085,0,.136-.068.068-.153a.2.2,0,0,1,.085-.271c.1-.068.169-.051.152.034-.085.509.034.678.441.593.645-.118,1.663-1.73,1.1-1.73a.17.17,0,0,0-.17.17.167.167,0,0,1-.135.169c-.085,0-.153-.118-.153-.254s.068-.2.136-.17c.05.051.2-.034.322-.169.17-.2.153-.255-.068-.255a.915.915,0,0,0-.56.34,1.048,1.048,0,0,1-.458.339c-.085,0,.017-.187.221-.407.288-.306.322-.424.152-.492-.118-.051,0-.068.289-.068.339.034.509-.051.56-.255.034-.2-.034-.254-.289-.186-.424.1-.509-.356-.1-.526.374-.136.306-.424-.118-.611-.221-.084-.289-.152-.17-.152.119-.017.17-.1.1-.221-.085-.119-.187-.085-.356.119-.119.187-.221.22-.221.119a.232.232,0,0,0-.254-.2c-.136,0-.255.051-.255.136,0,.068-.22.136-.492.136-.356.016-.475-.034-.407-.2a.365.365,0,0,1,.322-.238c.458,0,.238-.3-.3-.407l-.56-.118.577-.492c.39-.323.628-.441.713-.323.152.272.356-.084.22-.424-.051-.152-.034-.271.068-.271.085,0,.2-.119.271-.255.068-.186-.034-.254-.373-.254-.322,0-.39.051-.237.153.152.085.051.135-.289.118a2.856,2.856,0,0,1-.526-.05,4.26,4.26,0,0,1,.764-.408c.712-.339.831-.475,1.035-1.374.271-1.085.22-1.306-.306-1.407-.577-.136-.916-.764-.543-.984.391-.221-.22-.713-.814-.645-.305.017-.475-.034-.441-.17.051-.237-.78-.508-1.187-.373-.17.051-.221.017-.119-.068.322-.254.271-.593-.153-.983-.407-.374-.407-.408-.118-.509.322-.1.441-.849.169-1.035-.085-.051-.034-.272.119-.492.237-.373.237-.407-.068-.577-.237-.119-.339-.356-.339-.746a2.825,2.825,0,0,0-.255-1.069,2.524,2.524,0,0,1-.169-1.221c.034-.39.017-.713-.051-.713-.2,0-.594.509-.492.679.051.085,0,.119-.136.068s-.661.322-1.221.865a5.335,5.335,0,0,1-1.188.933,3.833,3.833,0,0,0-.916.356c-.61.288-.763.3-1,.119-.611-.492-.9-.848-.933-1.137a3.5,3.5,0,0,1,.729-1.628.186.186,0,0,0,.068-.272c-.051-.084-.034-.135.051-.118.068.034.136-.017.136-.1,0-.1-.221-.187-.509-.221a6.271,6.271,0,0,1-.9-.135c-.34-.085-.374-.136-.187-.357.17-.22.17-.288-.034-.407a7.045,7.045,0,0,1-1.323-1.068.914.914,0,0,0-.475-.289c-.288,0-.288.34,0,.34.1,0,.068.084-.1.186-.305.187-.576.153-2.595-.22-.984-.17-1.052-.17-1.408.186a1.553,1.553,0,0,0-.424.781,1.506,1.506,0,0,1-1.069,1.221c-.678.271-.729.441-.119.288.408-.1.442-.085.323.289a2.233,2.233,0,0,0-.136.61c0,.119-.051.221-.119.221a4.414,4.414,0,0,0-.865.594,4.33,4.33,0,0,1-.882.593,1.168,1.168,0,0,0-.627.577c0,.051.067.1.169.1a1.693,1.693,0,0,1,1.018,1.051,4.793,4.793,0,0,1-.984,2.053,10.467,10.467,0,0,1-3.6,1.679l-1.018.17.085.746c.051.441.017.747-.085.747-.085,0-.169.186-.169.407a.794.794,0,0,1-.136.509,1.124,1.124,0,0,0-.17.644,1.289,1.289,0,0,1-.543.95c-.288.221-.475.475-.424.56.068.085.034.153-.068.153-.084,0-.186-.1-.237-.221-.051-.136-.2-.085-.509.2-.458.424-.8.356-.8-.153a.822.822,0,0,0-.289-.543.755.755,0,0,1-.322-.475,2.4,2.4,0,0,0-.153-.543c-.1-.254-.05-.271.374-.152.967.288.984.288.984-.153,0-.373-.068-.424-.526-.407-.441.017-.526-.017-.458-.288a.813.813,0,0,1,.237-.424.693.693,0,0,0,.153-.509c0-.221.068-.407.136-.407.22,0,.729-.984.559-1.086a8.171,8.171,0,0,0-1.475-.187,3.864,3.864,0,0,1-1.578-.322,3.8,3.8,0,0,0-.984-.475c-.407-.119-.729-.322-.729-.424,0-.3-.577-.848-1.052-.984-.2-.068-.645-.22-.95-.356a1.43,1.43,0,0,0-1.187-.085,6.348,6.348,0,0,1-.73.187c-.135,0,.051-.882.339-1.578.255-.628.119-.8-.593-.8-.323,0-.577-.051-.577-.1a12.81,12.81,0,0,1,1.662-2.1,6.533,6.533,0,0,0,1.12-.764,5.96,5.96,0,0,1,1.476-.848c.254-.068.509-.2.56-.339s.356-.288.678-.356c.339-.051.611-.17.611-.255s.1-.135.22-.118c.1.033.187-.051.153-.187-.051-.221.1-.221.9.068q.355.128.1-.051c-.17-.119-.085-.2.356-.356a1.949,1.949,0,0,0,.814-.526.818.818,0,0,1,.509-.339.739.739,0,0,0,.458-.187,2.144,2.144,0,0,1,1.018-.254,7.39,7.39,0,0,0,3.342-1.544,5.673,5.673,0,0,1,1.7-1.069,6.479,6.479,0,0,1-.933.967,5.712,5.712,0,0,0-1,1.154c0,.1-.339.288-.763.407-.916.271-.933.627-.017.559.577-.05.627-.033.526.289-.136.475.288.475,1.153.017a2.825,2.825,0,0,1,.882-.339.98.98,0,0,0,.543-.34c.356-.356,1.1-.3.967.085-.136.339,1.153.492,1.866.238.492-.17.56-.272.424-.509a.347.347,0,0,0-.39-.221c-.136.051-.272-.068-.323-.3a2.8,2.8,0,0,0-1.526-1.188c-.221-.1-.272-.237-.187-.593a2.845,2.845,0,0,1,.187-.56c.1-.119.373.39.288.543-.085.119.017.152.662.2.1.017.2-.135.22-.322.051-1.018.051-1,.39-.577.306.373.34.373.441.1a.51.51,0,0,1,.408-.288,2.339,2.339,0,0,0,.763-.255,2.323,2.323,0,0,1,.678-.254,1.308,1.308,0,0,0,.611-.424c.3-.323.339-.458.2-.645-.238-.288.152-.7.916-.967a1.51,1.51,0,0,0,.7-.593c.17-.374.153-.425-.119-.425-.593,0-.525-.322.1-.491a1.3,1.3,0,0,1,1.1.067,1.6,1.6,0,0,0,.967.153c.627-.119.9.221.305.373-.509.119-.95.577-.594.577.153.017.085.136-.169.356-.221.187-.34.39-.272.458s.17.017.2-.1a.393.393,0,0,1,.322-.2c.221,0,.3-.2.255-.56a.136.136,0,0,1,.152-.119,3.775,3.775,0,0,0,1.527-1.051c0-.1-.136-.119-.289-.051-.627.254-.9.288-.9.1,0-.1.187-.187.425-.187a.573.573,0,0,0,.593-.39c.085-.2.153-.272.153-.17a.275.275,0,0,0,.271.221c.153,0,.2.1.136.288s-.051.238.085.153c.119-.068.2-.051.2.017,0,.084.2.271.475.424l.458.288-.475.017c-.271,0-.441-.068-.373-.153.153-.271-.254-.407-.526-.186-.169.169-.186.271-.051.441a.391.391,0,0,1,.051.424c-.084.153.034.17.475.085.458-.085.594-.051.594.152,0,.187-.187.255-.712.255-1.137,0-2.375.814-2.036,1.357.254.407,2.46-.119,2.46-.594a.606.606,0,0,1,.237-.407c.187-.153.238-.136.2.1-.017.237.135.322.627.356.458.034.628-.017.628-.2,0-.136-.17-.272-.373-.306a.558.558,0,0,1-.441-.3c-.068-.221-.051-.221.169-.034.221.17.289.17.357,0s.1-.17.1-.017c.017.119.17.22.357.22.254,0,.322.085.271.374a3.677,3.677,0,0,0-.085.678.329.329,0,0,1-.3.306,1,1,0,0,0-.543.22,4.564,4.564,0,0,1-1.12.543c-1.051.373-1.238.526-.966.8.288.289.254.458-.085.458a5.174,5.174,0,0,0-.933.153,3.738,3.738,0,0,1-1.51,0,1.893,1.893,0,0,0-1.493.152c-.9.458-1.272.866-1.051,1.137a1.784,1.784,0,0,0,1.764.2,4.6,4.6,0,0,1,1.306-.17c.322.017.763.034.984.051.22,0,.339.085.288.186-.051.085.017.17.17.17a.215.215,0,0,1,.22.288,1.13,1.13,0,0,0,.323.73,1.37,1.37,0,0,1,.39.712c0,.407.254.509.746.289.356-.17.492-.136.882.169a1.792,1.792,0,0,0,.848.356,4.825,4.825,0,0,1,1.256.34,2.254,2.254,0,0,0,.848.254c0-.051.152.068.356.272.407.407.848.186.712-.357-.1-.356-.559-.475-.559-.152,0,.1-.1.152-.2.1a.344.344,0,0,1-.17-.39,1.01,1.01,0,0,0-.39-.712,1.31,1.31,0,0,1-.424-.526c0-.085-.152-.187-.339-.237a.448.448,0,0,1-.339-.391c0-.271.017-.271.339.017.187.17.39.255.458.2.051-.068.22.034.356.237.2.289.272.306.509.119.153-.119.221-.136.153-.034-.068.119.051.238.288.306a.715.715,0,0,1,.492.441.4.4,0,0,0,.729.152.29.29,0,0,0-.118-.339c-.17-.1-.187-.153-.017-.153.1,0,.2-.152.2-.339,0-.2.085-.288.238-.237a.548.548,0,0,0,.509-.2c.254-.237.254-.322.034-.645a.6.6,0,0,1-.068-.678c.186-.339-.051-.611-.56-.611-.288,0-.492-.3-.594-.9-.034-.169.034-.288.187-.288.305,0,.322-.187.051-.492-.187-.187-.17-.2,0-.119a.388.388,0,0,0,.424-.051c.271-.22,1.018.407,1.1.916.068.39.374.815.509.7.034-.051.221-.017.39.068a.689.689,0,0,0,1-.407c.119-.306.238-.357.747-.306.39.051.61,0,.61-.136a.913.913,0,0,1,.713-.678,1.56,1.56,0,0,0,.627-.322l.391-.306-.475-.339a1.1,1.1,0,0,0-.73-.254c-.136.05-.186,0-.119-.119.068-.1.017-.187-.118-.187a1.273,1.273,0,0,1-.628-.441.811.811,0,0,0-.8-.322.5.5,0,0,1-.492-.1,1.936,1.936,0,0,0-.679-.424c-.322-.136-.576-.3-.576-.373,0-.221.8-.594,1-.475.323.2.56-.068.323-.373-.17-.2-.17-.272,0-.323.559-.2-.153-1.136-1.069-1.391a1.646,1.646,0,0,0-.8-.084c-.068.051-.136-.034-.136-.187s-.068-.237-.153-.187-.186-.05-.237-.237c-.068-.271-.238-.339-.831-.339a2.147,2.147,0,0,0-.984.2c-.2.187-.2.17-.017-.085.17-.2.17-.288.034-.288-.119,0-.153-.085-.1-.17.051-.1-.017-.169-.153-.169a.265.265,0,0,1-.271-.255c0-.135-.17-.288-.373-.322-.221-.051-.543-.119-.73-.153-.237-.05-.2-.084.136-.1.255-.017.458-.119.458-.238,0-.492-.594-.746-1.951-.848-1.1-.085-1.408-.051-1.645.17-.288.254-.3.254-.3,0,0-.357-.832-.374-2.375-.034-1.289.288-1.612.3-1.018.051l.424-.17-.424-.17c-1.153-.441-4.41.56-5.8,1.8a1.1,1.1,0,0,1-.424.272c-.153.017-.8.848-.7.916a5.03,5.03,0,0,0,.984.22l.933.187-1-.034c-1.136-.017-1.34.187-.763.729a.741.741,0,0,0,.712.255c.221-.068.289-.034.221.085-.136.2.017.237,1,.22.373-.017.559.017.424.085a1.153,1.153,0,0,0-.73.933c-.034.221-.169.39-.305.39a2.459,2.459,0,0,0-.848.475c-.628.475-.933.594-.747.288.051-.1,0-.169-.135-.169-.289,0-.9.644-.73.8.051.068-.135.221-.441.339-.424.187-.56.187-.678.017-.221-.356-.068-.712.407-.95.984-.475.644-1.594-.39-1.238-.475.153-.509.153-.407-.153.084-.271.033-.339-.238-.339-.39,0-.509-.594-.17-.712.153-.051.153-.17,0-.458s-.169-.441-.017-.611c.255-.3.051-.933-.305-.95-.153,0,.034-.136.441-.3a2.3,2.3,0,0,0,.848-.475,2.148,2.148,0,0,1,1.052-.255c1.154-.118,3.749-1.272,3.376-1.509a2.29,2.29,0,0,0-.916-.153,12.129,12.129,0,0,1-1.357-.1c-.815-.1-2.053.136-2,.407.034.1-.068.153-.221.085a.774.774,0,0,0-.627.238,2.6,2.6,0,0,1-.7.458.308.308,0,0,0-.22.424c.1.39-.39.882-1.188,1.2-.305.119-.559.255-.559.322s-.153.119-.357.136c-.475.034-1.17.509-1.17.8,0,.119-.187.323-.424.441-.288.153-.424.357-.39.577.034.272-.051.373-.424.407a1.065,1.065,0,0,1-.8-.22c-.254-.221-.373-.238-.78-.051a1.647,1.647,0,0,0-.627.424,1.416,1.416,0,0,1-.8.322c-.729.119-.933.509-.3.611a.578.578,0,0,1,.441.288c.051.153-.034.187-.288.1-.255-.068-.458.017-.73.288-.356.374-.543.408-2.307.441-1.56.017-1.934-.017-2.018-.237-.051-.153-.2-.2-.408-.153-.458.153-.814-.1-.39-.271.306-.119.306-.119,0-.238a.329.329,0,0,0-.441.085c-.1.153-.152.119-.2-.169a.572.572,0,0,0-.289-.475c-.135-.051-.186,0-.135.084s-.119.136-.407.085l-.509-.068.458-.237c.322-.17.526-.187.644-.068.221.221.492.221.356,0-.05-.085,0-.119.153-.068a.568.568,0,0,1,.322.306c.051.135.475.22,1.137.237a3.46,3.46,0,0,1,1.306.221c.187.152.322.118.611-.17a1.55,1.55,0,0,1,.594-.356c.237,0,.254-.1.05-.492-.118-.221-.084-.289.17-.306a.269.269,0,0,1,.322.221c0,.136.051.237.1.237a2.377,2.377,0,0,0,1.086-.9c0-.186-.713-.576-1.561-.848-.407-.135-.39-.407.034-.627a.612.612,0,0,0,.339-.424c0-.577.747-1.374,1.629-1.765a2.7,2.7,0,0,0,.916-.525c0-.187-.458-.34-1.018-.34-.594,0-1.527.357-1.221.458.1.051.2.153.2.238,0,.1-.135.1-.322-.017a1.551,1.551,0,0,0-1.917.373,3.984,3.984,0,0,0-.661.933c-.085.22-.221.39-.306.39-.186,0-.152-.322.051-.644.085-.136.017-.357-.17-.56-.356-.39-1.085-.441-1.085-.068,0,.322-.238.322-1.137-.017a1.542,1.542,0,0,0-1.272-.085c-.441.153-.509.153-.339-.017.288-.288.254-.475-.1-.475a.755.755,0,0,1-.543-.424c-.271-.509-.644-.644-1.866-.7-.509-.017-1.662-.085-2.544-.119A13.532,13.532,0,0,0,82.806,14.868Zm32.705,1.493a2.7,2.7,0,0,0-.831.814l-.305.543-.17-.424c-.085-.221-.085-.441-.017-.458.085-.034.407-.2.729-.391a2.9,2.9,0,0,1,.849-.322C115.9,16.123,115.8,16.225,115.511,16.361Zm4.716.271c.085.322.186.356.831.271.628-.084.662-.084.3.085a4.862,4.862,0,0,1-1.187.2c-.746.034-.763.017-.458-.289.17-.169.254-.373.2-.458-.067-.1-.033-.169.051-.169S120.176,16.445,120.227,16.632Zm-6.277.95c-.152.051-.169.17-.05.407.186.339-.051.475-.255.153-.153-.255.034-.679.289-.662C114.1,17.48,114.1,17.514,113.95,17.582Zm10.043.22a.465.465,0,0,1-.391.153c-.237,0-.22-.034.051-.153C124.111,17.616,124.111,17.616,123.993,17.8Zm2.459,1.358a1.349,1.349,0,0,1-.594.152c-.271-.017-.271-.034.085-.152C126.537,18.973,126.758,18.973,126.452,19.16Zm1.764.712c-.084.136-.034.153.187.068a.342.342,0,0,1,.441.1c.1.169-.153.271-.984.424-1.323.237-1.611.186-.475-.1.424-.1.747-.255.747-.322-.034-.2.016-.374.118-.374C128.3,19.668,128.284,19.753,128.216,19.872ZM111.3,19.94a.342.342,0,0,1-.322.017c-.136-.051-.085-.1.1-.1C111.27,19.838,111.372,19.889,111.3,19.94Zm16.166.136c0,.033-.153.1-.339.152s-.306.017-.238-.068C126.978,20.008,127.47,19.94,127.47,20.076Zm-57.216.2a.344.344,0,0,1-.323.017c-.135-.051-.084-.1.1-.1C70.22,20.177,70.322,20.228,70.254,20.279Zm44.154.068c0,.085-.169.17-.373.17-.322,0-.339-.034-.135-.17C114.222,20.126,114.408,20.126,114.408,20.347Zm2.511-.051a1.742,1.742,0,0,1-.594,0c-.169-.051-.034-.085.289-.085S117.072,20.245,116.919,20.3Zm-47.971.221a1.186,1.186,0,0,1-.509.152c-.17,0-.136-.051.085-.152C68.982,20.313,69.253,20.313,68.948,20.517Zm36.979,0a.17.17,0,0,1-.17.169.183.183,0,0,1-.169-.169.17.17,0,0,1,.169-.17A.161.161,0,0,1,105.927,20.517Zm-2.884.373c0,.068-.186.254-.424.407-.526.339-.56.644-.068.526.2-.051.306-.034.221.034a10.464,10.464,0,0,1-2.154.763.9.9,0,0,0-.628.526c-.119.288-.238.39-.441.3-.272-.1-.272-.119.017-.322.169-.136.237-.3.153-.441-.068-.119-.068-.17.016-.1.17.153.8-.17.679-.356-.034-.085.271-.238.695-.339s.713-.272.662-.357a.218.218,0,0,0-.288-.068c-.1.068-.136-.016-.1-.2.034-.221.186-.305.424-.271.2.033.407-.017.458-.119C102.382,20.686,103.043,20.686,103.043,20.89Zm-37.827.22c-.781.306-1.222.306-.679.017a2.014,2.014,0,0,1,.848-.237C65.759,20.89,65.725,20.907,65.216,21.11Zm63.611-.118c0,.067-.271.1-.594.067a1.484,1.484,0,0,1-.593-.135,1.438,1.438,0,0,1,.593-.068C128.556,20.856,128.827,20.924,128.827,20.992Zm-22.323.576c-.1.356-.424.7-.526.577-.085-.085.373-.95.509-.95C106.572,21.2,106.572,21.365,106.5,21.568Zm13.248-.034a.4.4,0,0,1-.272.17c-.1,0-.118-.085-.067-.17a.345.345,0,0,1,.271-.169C119.786,21.365,119.8,21.433,119.752,21.534Zm-5.174.17a.186.186,0,0,1-.186.17c-.085,0-.119-.085-.068-.17.051-.1.135-.17.186-.17C114.544,21.534,114.578,21.6,114.578,21.7Zm6.226-.068a.344.344,0,0,1-.323.017c-.135-.051-.085-.1.1-.1C120.77,21.534,120.871,21.585,120.8,21.636Zm-11.739,1.069a.367.367,0,0,1-.288.186c-.1,0-.1-.1.034-.254C109.048,22.349,109.252,22.416,109.065,22.705Zm-10.6.085c0,.034-.118.1-.254.169-.136.051-.255.017-.255-.068,0-.1.119-.169.255-.169S98.463,22.756,98.463,22.79Zm22.7.05a1.742,1.742,0,0,1-.594,0c-.17-.05-.034-.084.288-.084S121.312,22.79,121.16,22.84Zm-33.553.832c0,.034-.153.068-.356.068-.187,0-.306-.068-.238-.17C87.1,23.434,87.607,23.519,87.607,23.672Zm11.823.169a.342.342,0,0,1-.322.017c-.136-.051-.085-.1.1-.1C99.4,23.74,99.5,23.79,99.43,23.841Zm-23.612.238c-.187.068-.594.237-.916.356-.56.2-.56.221-.17.373a3.264,3.264,0,0,0,1.255.034l.848-.1-.542.34a2.421,2.421,0,0,1-1.205.322c-.814,0-1.425.17-1.306.39.085.136-.271.238-.645.17a2.956,2.956,0,0,0-.746.237c-.339.136-.644.221-.7.17-.136-.136,1.17-.628,1.425-.526a.29.29,0,0,0,.339-.1c.2-.322-1.289,0-1.832.407-.407.272-.577.306-.865.17-.306-.153-.323-.187-.068-.187.152-.017.288-.1.288-.186,0-.1.153-.17.322-.17a1.034,1.034,0,0,0,.594-.254.809.809,0,0,1,.56-.221h.628c.627-.068-.068-.543-.73-.509l-.61.017.559.068c.289.034.543.136.543.238,0,.084-.017.152-.034.152-.034-.017-.475-.119-.984-.237l-.933-.2,1.357-.22c.747-.119,1.849-.323,2.46-.441C76,23.892,76.293,23.875,75.818,24.079Zm47.242-.017c0,.085.2.2.441.254.593.153.339.373-.56.492-.611.068-.7.051-.594-.2C122.551,24.079,123.06,23.689,123.06,24.062Zm8.719.169c.067.085-.051.119-.238.068-.39-.1-.441-.22-.1-.22A.433.433,0,0,1,131.779,24.231Zm-95.96.289a.343.343,0,0,1-.322.017c-.136-.051-.085-.1.1-.1C35.785,24.418,35.887,24.469,35.819,24.52Zm72.6.611c0,.3-.034.458-.068.339a.512.512,0,0,0-.424-.2c-.2,0-.306-.051-.255-.119.068-.05.034-.2-.068-.339-.152-.169-.085-.22.306-.22C108.37,24.588,108.421,24.639,108.421,25.131Zm-4.106.576c.34.255.34.272-.067.2a.654.654,0,0,1-.492-.272C103.671,25.368,103.908,25.385,104.315,25.707ZM32.223,26.793a.431.431,0,0,1-.306.17c-.118,0-.1-.068.051-.17C32.291,26.589,32.358,26.589,32.223,26.793Zm85.069.186c0,.085-.119.153-.254.153-.153,0-.2-.1-.153-.254C116.987,26.623,117.292,26.691,117.292,26.979Zm2.121,1.341a.366.366,0,0,1-.272.169.167.167,0,0,1-.153-.169c0-.1.119-.17.272-.17C119.4,28.15,119.463,28.218,119.413,28.32ZM75.444,30.338c.289.255,1.154.153,2.24-.22.186-.068-.034.084-.509.339a5.98,5.98,0,0,1-1.7.594,2.093,2.093,0,0,0-1.017.39,6.071,6.071,0,0,1-3.139.271c-.22-.153-.22-.169,0-.186a3.172,3.172,0,0,1,.56.017,1.5,1.5,0,0,0,.764-.272,3.559,3.559,0,0,1,1.051-.407c.526-.085.594-.153.645-.628.051-.509.085-.542.424-.339A6.654,6.654,0,0,1,75.444,30.338Zm49.261.628a.343.343,0,0,1-.322.017c-.136-.051-.085-.1.1-.1C124.671,30.864,124.773,30.915,124.705,30.966Zm-87.478.678c0,.034-.119.068-.255.068s-.254-.068-.254-.169c0-.085.119-.119.254-.068C37.108,31.543,37.227,31.61,37.227,31.644Zm-1.408.17a.343.343,0,0,1-.322.017c-.136-.051-.085-.1.1-.1C35.785,31.712,35.887,31.763,35.819,31.814Zm-.713.237c-.152.238-.763.543-.763.391,0-.119.407-.374.814-.543C35.191,31.9,35.157,31.95,35.106,32.051ZM29.644,33.7a1.279,1.279,0,0,1-.509,0c-.169-.051-.067-.085.2-.085C29.627,33.612,29.746,33.646,29.644,33.7Zm.967-.051c0,.034-.152.1-.339.153s-.3.017-.237-.068C30.119,33.578,30.611,33.51,30.611,33.646ZM47.88,35.02c-.051.051-.153-.034-.2-.2-.1-.237-.085-.254.085-.1C47.88,34.833,47.93,34.969,47.88,35.02Zm.288.424c.051.085.034.17-.068.17a.4.4,0,0,1-.271-.17c-.051-.1-.034-.17.068-.17A.347.347,0,0,1,48.168,35.444Zm-.848.339a.373.373,0,0,0,.068.407c.135.153.118.221-.068.221-.136,0-.2-.068-.153-.136.034-.068-.017-.186-.119-.254-.135-.068-.118-.153.034-.255C47.388,35.58,47.439,35.58,47.32,35.783Zm-21.8.17c0,.085-.034.17-.068.17-.05,0-.135-.085-.186-.17-.051-.1-.017-.17.068-.17A.174.174,0,0,1,25.522,35.953Zm23.24.763c-.238.289-.781.339-.916.1-.068-.085.034-.119.22-.068a.386.386,0,0,0,.424-.1.43.43,0,0,1,.306-.186C48.914,36.462,48.9,36.564,48.762,36.716Zm-.238.628c.068.1.051.136-.068.068a.284.284,0,0,0-.339.169c-.1.187-.187.221-.271.085-.068-.1-.034-.186.068-.186s.135-.085.084-.17c-.051-.1.017-.17.153-.17A.465.465,0,0,1,48.524,37.344Zm-1.119.543a1.061,1.061,0,0,1-.289.288c-.271.221-.288.2-.068-.068S47.405,37.751,47.405,37.887Zm.678.7c0,.136-.034.255-.068.255s-.1-.119-.169-.255c-.051-.136-.017-.254.068-.254C48.015,38.328,48.083,38.446,48.083,38.582Zm1.137-.153a.344.344,0,0,1-.323.017c-.135-.05-.084-.1.1-.1C49.186,38.328,49.288,38.379,49.22,38.429ZM47.2,39.736c-.1.2-.2.39-.22.407a1.2,1.2,0,0,1-.034-.441c0-.34.067-.475.22-.407C47.354,39.362,47.354,39.464,47.2,39.736Zm35.588,2a7.013,7.013,0,0,1-.458,2.7.138.138,0,0,1-.152-.135.956.956,0,0,0-.153-.357c-.119-.186-.22-.2-.407-.05-.17.152-.237.152-.237-.017a2.749,2.749,0,0,0-.119-.594c-.1-.288-.051-.407.271-.526l.39-.17h-.373c-.509-.017-.492-.118.085-.61C82.128,41.534,82.6,41.432,82.789,41.737Zm42.476-.118a1.762,1.762,0,0,1-.543.254c-.509.17-.526.153-.238-.068C124.79,41.568,125.265,41.466,125.265,41.619Zm-77.691.61c0,.085-.034.17-.068.17-.05,0-.135-.085-.186-.17-.051-.1-.017-.169.068-.169A.174.174,0,0,1,47.574,42.229ZM82.348,45.2a3.307,3.307,0,0,1-.508.593c-.323.323-.509.425-.509.272a1.129,1.129,0,0,1,.441-.594C82.23,45.113,82.348,45.045,82.348,45.2ZM49.372,47.25c0,.187.187.356.543.475.441.153.509.238.339.407-.152.153-.152.2,0,.2.119,0,.2.17.2.373,0,.288-.051.322-.153.153a.261.261,0,0,0-.356-.1c-.136.085-.187.051-.136-.1.051-.136-.118-.441-.356-.678-.475-.458-.627-1-.271-1C49.3,46.979,49.389,47.1,49.372,47.25ZM91.39,48.777c.152.051.2.237.169.492a.643.643,0,0,0,.916.644c.255-.1.272-.067.1.153-.119.136-.17.3-.119.356.068.051.051.238-.017.407a2.173,2.173,0,0,0-.237.815.245.245,0,0,1-.2.254c-.1,0-.152-.119-.084-.254.067-.2-.051-.221-.713-.136a4.12,4.12,0,0,0-1.086.254c-.373.187-1.1,0-1.221-.3a.422.422,0,0,0-.39-.237c-.2,0-.119-.119.271-.357.628-.373.594-.593-.067-.424-.272.068-.391.187-.323.306s.051.135-.068.067c-.1-.067-.441.017-.746.17a4.969,4.969,0,0,1-1.069.424c-.271.068-.7.187-.933.255-.424.1-.424.1-.084-.17.322-.288.305-.288-.374-.221a2.231,2.231,0,0,1-.729.034,9.645,9.645,0,0,1,2.595-1.272,2.978,2.978,0,0,0,.9-.356.353.353,0,0,1,.289-.153c.1,0,.034.119-.153.255-.17.135-.237.254-.119.254.357,0,1.069-.322,1.069-.492,0-.1-.1-.135-.238-.085a.323.323,0,0,1-.373-.118c-.068-.119-.051-.17.034-.1a2.831,2.831,0,0,0,1.086-.221A2.773,2.773,0,0,1,91.39,48.777Zm-41.526.594a1.1,1.1,0,0,1-.644.135c-.357-.017-.424-.051-.2-.1a1.327,1.327,0,0,0,.492-.238C49.7,49,49.983,49.15,49.864,49.371ZM115,49.863c.136.22-.085.22-.424,0-.22-.136-.22-.17.034-.17A.471.471,0,0,1,115,49.863Zm1.781,2.307c0,.033-.152.067-.356.067-.187,0-.305-.067-.237-.169C116.274,51.932,116.783,52.017,116.783,52.17Zm-22.306.322c.1.034-.187.068-.628.068-.458.017-.814-.051-.814-.119C93.035,52.322,94.087,52.356,94.477,52.492Zm-3.138.186A4.967,4.967,0,0,1,90.05,53.9c-.56.152-.747.288-1.307.95a3.192,3.192,0,0,0-.966,2.086c0,.288-.255.679-.747,1.171-.814.831-1.272.95-1.306.356-.051-.984.7-2.392,2.137-3.987.713-.8.865-1.221.255-.678-.136.119-.068,0,.169-.254.255-.289.526-.442.713-.408A.8.8,0,0,0,89.592,53C90.033,52.7,91.339,52.458,91.339,52.678Zm2.883.509c.56.238.611.238.883-.085.424-.525.916-.458,1.136.17.407,1.171-.339,1.832-.95.831-.373-.644-.712-.678-.594-.068.068.357-.033.56-.441.916a1.992,1.992,0,0,0-.627.9c-.1.374-.713.967-1,.967-.051,0-.068-.322-.051-.729.034-.628,0-.712-.3-.662a1.482,1.482,0,0,0-.611.306.8.8,0,0,1-.407.237c-.068,0,.22-.339.662-.763s.746-.848.7-.933a.187.187,0,0,1,.085-.255c.288-.186.186-.424-.255-.627-.237-.1-.424-.3-.424-.441,0-.187.153-.221.815-.119A7.266,7.266,0,0,1,94.222,53.187Zm.408-.237a.347.347,0,0,1-.255.136.15.15,0,0,1-.153-.136c0-.085.119-.153.255-.153S94.68,52.865,94.63,52.95Zm5.53,2.629c-.017.56-1.035.95-2.121.814a4.732,4.732,0,0,0-1.493.051c-.814.221-.814-.034.017-.424a4.166,4.166,0,0,1,1.782-.3c.627,0,1.136-.051,1.136-.136,0-.068.153-.119.339-.119S100.16,55.511,100.16,55.579Zm-3.9,1.662a10.327,10.327,0,0,1-2.544,1.222c-1.646.627-2.341.763-2.714.56-.442-.238-.442-.509,0-.509.186,0,.339.1.339.2,0,.17.034.17.135.017a4.212,4.212,0,0,1,1.137-.712,2.6,2.6,0,0,1,1.781-.424c.543.068.7.051.526-.068-.187-.136-.119-.187.339-.255.323-.034.679-.084.8-.084C96.156,57.174,96.258,57.191,96.258,57.241Zm-4.326.933a.591.591,0,0,1-.441.17c-.169,0-.322-.085-.322-.17,0-.1.2-.169.441-.169S92,58.073,91.932,58.174Zm4.75,6.124c.187.288-.017.356-.254.068-.136-.153-.136-.255-.034-.255A.368.368,0,0,1,96.682,64.3Zm0,2.867c.051.1-.017.119-.153.068-.3-.119-.356-.238-.118-.238A.322.322,0,0,1,96.682,67.165ZM76.666,75.646c.051.085-.017.17-.17.17s-.22-.085-.169-.17c.05-.1.135-.169.169-.169S76.615,75.545,76.666,75.646Zm1.917,27.548c.169.39.152.407-.408.39-.491-.034-.542-.067-.3-.237.272-.2.272-.221.017-.322a.462.462,0,0,1-.288-.424c0-.306.034-.306.39-.068A1.848,1.848,0,0,1,78.583,103.194Z"/>
    <path id="path2417" class="cls-1" d="M104.994,15.292a13.755,13.755,0,0,1-1.527.187,7.123,7.123,0,0,0-1.34.271c-.526.187-.61.254-.39.39.407.221.153.645-.407.645-.271,0-.492-.085-.492-.17,0-.22-.611-.22-1.035,0-.424.238-.237.594.543.984.424.2.577.39.56.678-.017.458.017.458,2.1.017a2.881,2.881,0,0,0,1.815-.95,2.448,2.448,0,0,0,.764-1.068c0-.187.118-.339.254-.339.272,0,.289-.1.119-.509C105.859,15.207,105.689,15.19,104.994,15.292Zm.254,1.17c.221.153.221.17-.033.1a.274.274,0,0,0-.357.1c-.034.1-.1.068-.169-.1C104.57,16.242,104.858,16.174,105.248,16.462Z"/>
    <path id="path2419" class="cls-1" d="M29.814,35.173a6.537,6.537,0,0,0-1,.492.874.874,0,0,1-.492.118.87.87,0,0,0-.593.255c-.119.135-.272.22-.34.169-.22-.135-1.187.272-1.357.577-.237.458.051.763.611.611.271-.085.611-.153.746-.187a3.382,3.382,0,0,0,.594-.22,10.326,10.326,0,0,1,.984-.424c.543-.221.712-.441.661-.95,0-.051.255-.068.577-.034.526.068.577.034.577-.373a1.314,1.314,0,0,0-.034-.425C30.713,34.782,30.306,34.969,29.814,35.173Z"/>
    <path id="path2421" class="cls-1" d="M83.875,86.011c-.237.068-.78.22-1.221.339a2.59,2.59,0,0,0-1.086.509.884.884,0,0,1-.56.322c-.237,0-.237.034-.017.17s.187.186-.118.271c-.509.136-.492.339.017.441a1.092,1.092,0,0,0,.8-.22,1.51,1.51,0,0,1,.678-.323,1.358,1.358,0,0,0,.662-.339,1.466,1.466,0,0,1,1.086-.322c.39.017.559.051.407.1-.17.034-.306.135-.306.22,0,.153,1.052.509,1.527.509a4.163,4.163,0,0,1,1.1.424,2.287,2.287,0,0,0,1.238.3c.305-.067.373-.017.373.34a.958.958,0,0,0,.255.627.72.72,0,0,1,.254.424.715.715,0,0,0,.254.424.439.439,0,0,1,.187.442c-.119.288,3.46.2,4.224-.085l.492-.2-.492-.407a2.209,2.209,0,0,0-.95-.424c-.305,0-.441-.085-.424-.271s-.221-.357-.713-.492c-.712-.221-1.73-1.069-1.73-1.476,0-.1-.051-.153-.1-.085-.068.051-.22,0-.356-.136-.288-.305-.8-.339-.628-.051.085.136.034.153-.169.085a1.742,1.742,0,0,0-.543-.118c-.136,0-.22-.085-.187-.2C87.929,86.3,84.91,85.688,83.875,86.011ZM90.067,89.9c.067.1-.119.17-.408.17s-.525-.085-.525-.17c0-.1.186-.169.407-.169C89.778,89.726,90.016,89.793,90.067,89.9Z"/>
    <path id="path2423" class="cls-1" d="M95.105,90.743c-.56.272-.577.509,0,.509.22,0,.3.136.3.475a1.119,1.119,0,0,0,.2.679c.323.322-.3.441-1.34.254-.814-.152-.933-.136-1.068.136-.136.237-.068.356.373.56.577.288.882.356.746.135-.034-.067.373-.135.933-.118.933,0,1.069.051,1.374.475l.34.475.424-.594c.407-.611.644-.746.763-.441.034.1.237.068.526-.085.492-.254,1.526-.2,1.611.085a.39.39,0,0,0,.34.169c.135,0,.2-.05.152-.118-.068-.051.017-.2.187-.323.271-.2.237-.271-.339-.831a2.164,2.164,0,0,0-.967-.593c-.2,0-.357-.1-.357-.238,0-.339-1.391-.678-2.307-.526-.559.085-.848.051-1.051-.136C95.7,90.489,95.58,90.506,95.105,90.743Z"/>
  </g>
</svg>
